<svg xmlns="http://www.w3.org/2000/svg" viewBox="0 0 1440 900" preserveAspectRatio="xMidYMid slice">
  <!-- Foreground — closest layer, tallest grass, partial tree trunks -->

  <!-- Foreground grass band -->
  <path d="
    M-20,900 L-20,820
    Q200,800 400,815
    Q600,830 800,810
    Q1000,800 1200,815
    Q1350,825 1460,818
    L1460,900 Z
  " fill="#2E7834"/>

  <!-- Grass blade clusters — left -->
  <g fill="#2E7834">
    <path d="M40,820 Q44,795 38,775 Q42,795 48,820Z"/>
    <path d="M55,822 Q60,790 54,765 Q59,792 66,822Z"/>
    <path d="M72,818 Q77,800 70,782 Q75,802 82,818Z"/>
    <path d="M100,820 Q105,793 98,773 Q103,795 110,820Z"/>
    <path d="M118,822 Q124,798 116,778 Q122,800 130,822Z"/>
  </g>

  <!-- Grass blade clusters — right -->
  <g fill="#2E7834">
    <path d="M1280,818 Q1285,793 1278,773 Q1283,795 1290,818Z"/>
    <path d="M1300,822 Q1306,798 1298,778 Q1304,800 1312,822Z"/>
    <path d="M1320,819 Q1326,796 1318,776 Q1324,798 1332,819Z"/>
    <path d="M1350,820 Q1356,795 1348,775 Q1354,797 1362,820Z"/>
    <path d="M1370,821 Q1377,796 1368,776 Q1374,799 1382,821Z"/>
  </g>

  <!-- Partial tree trunks cut off by frame edge -->
  <rect x="-8"  y="730" width="18" height="170" rx="4" fill="#5A3018"/>
  <rect x="290" y="760" width="15" height="140" rx="4" fill="#5A3018"/>
  <rect x="1100" y="750" width="16" height="150" rx="4" fill="#5A3018"/>
  <rect x="1430" y="740" width="18" height="160" rx="4" fill="#5A3018"/>

  <!-- Foreground foliage hanging down from top of trunks -->
  <circle cx="0"    cy="700" r="55" fill="#247034"/>
  <circle cx="295"  cy="720" r="46" fill="#1A5E2A"/>
  <circle cx="1108" cy="710" r="50" fill="#247034"/>
  <circle cx="1440" cy="700" r="55" fill="#1A5E2A"/>
</svg>
